#!OML:ASF E:\emotionWalksFemale\Project 1\Capture day 1\Session 1\Female1.ASF
:FULLY-SPECIFIED
:DEGREES
918
root 8.43255 15.1896 -18.2811 -177.526 -6.44145 -184.722
lowerback 4.61367 -0.897794 -5.76541
upperback -1.17713 -1.47899 2.09833
thorax -3.61502 -0.58775 5.54282
lowerneck -1.57283 -0.868918 1.43489
upperneck -4.64939 -1.4096 -2.82991
head -1.20292 -0.752764 -1.10603
rclavicle 3.2551e-015 1.51076e-014
rhumerus -42.7937 -18.912 -66.3136
rradius 26.9413
rwrist 32.5939
rhand 12.5632 -53.3119
rfingers 7.12502
rthumb 37.5532 -79.2313
lclavicle 3.2551e-015 1.51076e-014
lhumerus -31.4253 -0.479506 92.5122
lradius 53.6383
lwrist -0.0300755
lhand -7.42206 -39.9235
lfingers 7.12502
lthumb 18.4649 -10.7798
rfemur -32.9378 33.282 3.68037
rtibia 20.7698
rfoot -29.9153 -45.9753
rtoes 13.196
lfemur 12.1759 -17.6451 -34.8187
ltibia 10.9069
lfoot -21.2903 9.17764
ltoes -17.3114
919
root 8.45149 15.1744 -18.3998 -177.338 -6.74419 -184.846
lowerback 4.56173 -0.95163 -5.71122
upperback -1.15637 -1.54555 2.04473
thorax -3.5573 -0.625033 5.45806
lowerneck -2.07073 -0.884839 1.34245
upperneck -4.99952 -1.46234 -2.61755
head -1.22592 -0.794166 -1.02487
rclavicle -2.6985e-014 3.10104e-014
rhumerus -42.6389 -18.7509 -66.3746
rradius 27.0862
rwrist 32.4887
rhand 12.411 -53.1301
rfingers 7.12502
rthumb 37.4093 -79.0877
lclavicle -2.6985e-014 3.10104e-014
lhumerus -31.7546 -0.693076 92.8044
lradius 53.3288
lwrist 0.272239
lhand -6.77189 -40.0212
lfingers 7.12502
lthumb 19.0902 -10.938
rfemur -32.1475 31.5656 4.75715
rtibia 20.9121
rfoot -27.7473 -44.9214
rtoes 10.5793
lfemur 12.6233 -17.4978 -34.7768
ltibia 10.6439
lfoot -21.1167 8.67156
ltoes -17.6376
920
root 8.46877 15.165 -18.5221 -177.16 -6.94323 -184.807
lowerback 4.52597 -0.988148 -5.51158
upperback -1.17456 -1.58113 2.06008
thorax -3.55534 -0.646987 5.36229
lowerneck -2.57649 -0.869934 1.01641
upperneck -5.31255 -1.45705 -2.11542
head -1.22922 -0.805602 -0.814169
rclavicle 4.37326e-015 -8.74653e-015
rhumerus -42.459 -18.58 -66.3587
rradius 27.1608
rwrist 32.3012
rhand 12.2857 -53.2959
rfingers 7.12502
rthumb 37.2909 -79.2846
lclavicle 4.37326e-015 -8.74653e-015
lhumerus -32.1065 -0.910941 93.0928
lradius 52.8832
lwrist 0.481664
lhand -6.2796 -40.02
lfingers 7.12502
lthumb 19.5636 -10.9843
rfemur -31.6903 30.7307 5.52366
rtibia 21.1473
rfoot -26.3712 -44.3971
rtoes 8.91533
lfemur 13.126 -17.3563 -34.5858
ltibia 10.2699
lfoot -20.8746 8.17833
ltoes -17.3357
921
root 8.4904 15.165 -18.6443 -176.976 -7.21425 -184.74
lowerback 4.42194 -1.01701 -5.34271
upperback -1.13562 -1.60344 2.11185
thorax -3.45557 -0.66622 5.3182
lowerneck -2.989 -0.929126 0.862181
upperneck -5.74633 -1.57195 -1.89577
head -1.29362 -0.879243 -0.720869
rclavicle -1.1281e-014 -2.78299e-014
rhumerus -42.1857 -18.4626 -66.34
rradius 27.2824
rwrist 31.9174
rhand 11.4781 -53.3547
rfingers 7.12502
rthumb 36.5269 -79.54
lclavicle -1.1281e-014 -2.78299e-014
lhumerus -32.4584 -0.974611 93.3558
lradius 52.3807
lwrist 0.292609
lhand -6.15896 -40.2488
lfingers 7.12502
lthumb 19.6795 -11.2249
rfemur -31.9243 32.1224 5.11515
rtibia 21.443
rfoot -28.0924 -45.4143
rtoes 11.4287
lfemur 13.638 -17.3932 -34.359
ltibia 9.82644
lfoot -20.5503 7.84963
ltoes -17.5104
922
root 8.5145 15.1724 -18.7699 -176.881 -7.65345 -184.7
lowerback 4.26068 -1.09239 -5.21094
upperback -0.982349 -1.68648 2.14406
thorax -3.19646 -0.722896 5.27415
lowerneck -2.71048 -0.848751 0.641773
upperneck -6.83824 -1.51788 -1.57951
head -1.68118 -0.870501 -0.583806
rclavicle 4.47266e-015 7.95139e-016
rhumerus -41.821 -18.3969 -66.3953
rradius 27.4374
rwrist 31.344
rhand 10.0576 -52.9984
rfingers 7.12502
rthumb 35.1809 -79.512
lclavicle 4.47266e-015 7.95139e-016
lhumerus -32.622 -0.899711 93.5243
lradius 51.5778
lwrist -0.2292
lhand -6.03272 -40.7892
lfingers 7.12502
lthumb 19.8009 -11.7778
rfemur -32.3363 34.7419 4.06834
rtibia 21.6525
rfoot -32.1524 -47.2901
rtoes 16.553
lfemur 14.1547 -17.5718 -34.1857
ltibia 9.627
lfoot -20.163 7.67439
ltoes -19.0517
